<svg width="20" height="25" viewBox="0 0 20 25" fill="none" xmlns="http://www.w3.org/2000/svg">
<path d="M19.0371 16.7064L14.3261 14.0835L14.3131 14.0761C14.0685 13.9461 13.8017 13.8939 13.5369 13.9243C13.272 13.9547 13.0174 14.0666 12.7961 14.25C12.77 14.2714 12.745 14.2946 12.7211 14.3196L10.2871 16.8978C8.74507 15.9672 7.15306 14.004 6.40405 12.1129L8.48207 9.04269C8.50207 9.01163 8.52107 8.98056 8.53907 8.94702C8.6835 8.6728 8.77113 8.35847 8.79416 8.032C8.81719 7.70554 8.7749 7.37706 8.67107 7.0758V7.0609L6.55406 1.19752C6.41679 0.803977 6.18078 0.476143 5.88124 0.262959C5.5817 0.0497741 5.2347 -0.0373266 4.89204 0.0146586C3.537 0.236205 2.2932 1.06304 1.39295 2.34074C0.4927 3.61844 -0.00244095 5.25963 9.04871e-06 6.95777C9.04871e-06 16.8232 6.46005 24.8498 14.4001 24.8498C15.7668 24.8529 17.0877 24.2376 18.116 23.1191C19.1444 22.0005 19.8098 20.4551 19.9882 18.7715C20.0301 18.3459 19.9601 17.9149 19.7887 17.5427C19.6173 17.1705 19.3537 16.8772 19.0371 16.7064ZM14.4001 22.8618C11.0065 22.8572 7.75285 21.1801 5.35317 18.1985C2.95349 15.2169 1.60373 11.1744 1.60002 6.95777C1.59626 5.74445 1.94807 4.57091 2.58976 3.65632C3.23145 2.74173 4.11914 2.14862 5.08705 1.98775C5.08665 1.99271 5.08665 1.99771 5.08705 2.00266L7.18706 7.84243L5.12005 10.9164C5.09907 10.9464 5.08001 10.9784 5.06305 11.0121C4.91256 11.299 4.82428 11.6293 4.80676 11.9711C4.78924 12.3129 4.84307 12.6545 4.96304 12.9628C5.86905 15.2651 7.73606 17.5675 9.60908 18.692C9.85904 18.8396 10.1356 18.9042 10.4116 18.8794C10.6877 18.8546 10.9538 18.7412 11.1841 18.5503C11.2098 18.5288 11.2345 18.5056 11.2581 18.4807L13.6891 15.9038L18.3891 18.5193C18.3891 18.5193 18.3971 18.5193 18.4001 18.5193C18.2723 19.7236 17.7956 20.8287 17.0594 21.628C16.3232 22.4273 15.3778 22.8659 14.4001 22.8618Z" fill="black"/>
</svg>
