<svg width="106" height="14" viewBox="0 0 106 14" fill="none" xmlns="http://www.w3.org/2000/svg">
<path d="M104.151 2.47217C103.337 2.63486 102.264 3.42673 101.509 3.84603C100.757 4.26386 100.008 4.72176 99.1955 5.00852C98.1312 5.38417 97.1195 5.87809 96.0251 6.07708C95.2855 6.21156 94.5615 6.92734 93.7823 7.12215C89.0564 8.30364 84.4931 9.9544 79.8441 11.185C78.2582 11.6048 76.3607 11.3494 74.7244 11.3494C72.7639 11.3494 70.7885 11.5608 68.8532 11.5608C64.5872 11.5608 60.3019 11.7721 56.0775 11.7721C51.5794 11.7721 47.0377 11.9841 42.5973 11.3964C37.0148 10.6575 31.1669 10.504 25.5356 10.504C20.2762 10.504 15.7818 8.35085 10.7755 7.21609C9.15581 6.84897 7.55659 6.6169 5.97283 6.26496C4.57454 5.95422 3.09806 5.21988 1.63989 5.21988" stroke="white" stroke-width="3" stroke-linecap="round"/>
</svg>
