<svg width="15" height="14" viewBox="0 0 15 14" fill="none" xmlns="http://www.w3.org/2000/svg">
<path d="M14.8242 1.27329L5.2246 13.2007C5.16888 13.27 5.10271 13.325 5.02987 13.3625C4.95704 13.4 4.87897 13.4193 4.80012 13.4193C4.72127 13.4193 4.6432 13.4 4.57037 13.3625C4.49753 13.325 4.43136 13.27 4.37564 13.2007L0.175826 7.98244C0.0632464 7.84257 0 7.65285 0 7.45503C0 7.25721 0.0632464 7.06749 0.175826 6.92762C0.288405 6.78774 0.441096 6.70915 0.600307 6.70915C0.759518 6.70915 0.912209 6.78774 1.02479 6.92762L4.80012 11.6194L13.9752 0.218462C14.0878 0.0785827 14.2405 -1.47386e-09 14.3997 0C14.5589 1.47386e-09 14.7116 0.0785827 14.8242 0.218462C14.9368 0.358341 15 0.548057 15 0.745876C15 0.943695 14.9368 1.13341 14.8242 1.27329Z" fill="white"/>
</svg>
