<svg width="113" height="14" viewBox="0 0 113 14" fill="none" xmlns="http://www.w3.org/2000/svg">
<path d="M2.46948 5.3903C3.34291 5.54911 4.13435 6.33422 5.00584 6.61151C6.23106 7.00135 7.41644 7.3941 8.69294 7.51567C9.38315 7.58141 9.99463 7.71529 10.7126 7.71529C13.9244 7.71529 16.981 8.98347 20.2005 8.98347C23.8097 8.98347 27.531 9.5771 31.1209 9.99332C35.9965 10.5586 40.7454 10.6744 45.7049 10.6744C53.1286 10.6744 60.6502 10.5696 68.0389 11.3085C72.8923 11.7938 77.3784 11.5278 82.2589 11.3085C84.9203 11.1888 87.5677 11.0971 90.232 11.0971C92.2995 11.0971 94.549 11.1726 96.5729 10.6744C98.4514 10.212 100.314 10.0099 102.127 9.30052C103.522 8.75463 104.994 8.4296 106.413 7.97363C108.11 7.42821 109.304 6.02219 110.523 4.80319C111.336 3.99045 110.183 4.03054 109.63 4.22781C108.741 4.54528 108.035 5.14288 107.211 5.5547C105.75 6.28549 103.909 6.02969 102.35 6.34144C100.732 6.66511 99.1068 6.67711 97.4888 6.91681C96.2723 7.09703 95.0555 7.23182 93.8839 7.49219C93.2248 7.63865 92.5597 7.92666 91.8759 7.92666C90.9699 7.92666 93.5664 7.23515 94.4592 7.08121C96.9168 6.6575 99.2567 6.02172 101.575 5.07326C102.76 4.58847 103.815 3.86058 105.027 3.44107C105.82 3.16687 106.615 3.06621 107.399 2.84221C108.248 2.59967 107.331 2.19626 106.883 2.21986C104.971 2.32048 102.691 3.33308 100.965 4.12213C98.963 5.03709 96.5818 5.12922 94.6236 6.02439C93.7604 6.41903 92.5994 6.53667 91.6646 6.67022C91.3072 6.72128 89.673 7.25986 89.5509 7.50393" stroke="white" stroke-width="3" stroke-linecap="round"/>
</svg>
