<svg width="58" height="8" viewBox="0 0 58 8" fill="none" xmlns="http://www.w3.org/2000/svg">
<path d="M56.3951 2.1153C56.3259 2.66903 54.4433 2.97993 54.057 3.1634C53.5197 3.41861 52.9765 3.83082 52.4849 4.1712C51.5531 4.81629 50.1957 5.25962 49.0583 5.25962C47.7915 5.25962 46.526 5.58211 45.269 5.58211C42.5459 5.58211 39.8179 5.60575 37.0992 5.7568C34.1463 5.92085 31.2123 6.06585 28.2574 6.06585C27.6841 6.06585 27.1108 6.06585 26.5375 6.06585C25.8926 6.06585 25.2774 6.2271 24.6294 6.2271C21.03 6.2271 17.229 6.54191 13.6735 5.90461C13.0206 5.78757 12.2938 5.64904 11.6982 5.34024C11.2681 5.11718 10.9121 4.92451 10.4307 4.81619C8.77522 4.44372 7.09823 4.29213 5.40511 4.29213C4.90495 4.29213 4.40478 4.29213 3.90462 4.29213C3.6784 4.29213 3.319 4.35656 3.10286 4.27422C2.93936 4.21193 2.20919 3.8771 2.14433 3.7636C1.99497 3.50222 3.63986 3.74831 3.89118 3.82631C4.38835 3.9806 4.90801 4.17499 5.43647 4.32797C7.36207 4.88538 9.16802 4.56887 11.1204 4.53401C11.9581 4.51905 13.1214 4.22485 13.9064 4.59671C14.379 4.82058 14.7725 4.8565 15.2815 4.8565C16.8213 4.8565 18.3447 4.78987 19.8771 4.69973C20.7753 4.64689 21.6777 4.45338 22.569 4.45338C23.1325 4.45338 23.699 4.43661 24.2621 4.45786C24.8039 4.47831 25.3371 4.61463 25.879 4.61463C27.6422 4.61463 29.4057 4.62551 31.1689 4.61463C32.802 4.60455 34.4418 4.39457 36.0779 4.37276C37.2067 4.35771 38.3129 4.26829 39.4373 4.21599C40.7391 4.15544 42.0585 4.31305 43.352 4.1488C44.403 4.01534 45.4548 3.96964 46.5142 3.96964C47.7876 3.96964 49.037 3.89409 50.2632 3.52621C51.0364 3.29424 51.8402 3.1571 52.6058 2.92153C53.3365 2.69671 54.1365 2.70382 54.8588 2.4781C55.0748 2.4106 55.4503 2.35717 55.6695 2.35717" stroke="white" stroke-width="3" stroke-linecap="round"/>
</svg>
